PathFileType	4	(X/Y/Z)	C:\Users\adpatrick\OneDrive - nih.no\Desktop\WebApp1080sync\WebAppv0.1\fp22_m505_left 2_Sports2D\fp22_m505_left 2_Sports2D_px_person00.trc
DataRate	CameraRate	NumFrames	NumMarkers	Units	OrigDataRate	OrigDataStartFrame	OrigNumFrames
60	60	11	22	m	60	0	869
Frame#	Time	Hip			RHip			RKnee			RAnkle			RBigToe			RSmallToe			RHeel			LHip			LKnee			LAnkle			LBigToe			LSmallToe			LHeel			Neck			Head			Nose			RShoulder			RElbow			RWrist			LShoulder			LElbow			LWrist		
		X1	Y1	Z1	X2	Y2	Z2	X3	Y3	Z3	X4	Y4	Z4	X5	Y5	Z5	X6	Y6	Z6	X7	Y7	Z7	X8	Y8	Z8	X9	Y9	Z9	X10	Y10	Z10	X11	Y11	Z11	X12	Y12	Z12	X13	Y13	Z13	X14	Y14	Z14	X15	Y15	Z15	X16	Y16	Z16	X17	Y17	Z17	X18	Y18	Z18	X19	Y19	Z19	X20	Y20	Z20	X21	Y21	Z21	X22	Y22	Z22
0	0.0	170.87208454620597	543.7582067118368	0.0	142.53970055724042	542.2625105215624	0.0	117.18763657771301	654.1004436958611	0.0	87.36429172312629	765.9376049454472	0.0	114.2075804425059	794.2686932572391	0.0	94.82190739268655	797.2558209656058	0.0	75.43817165851546	785.3261497345649	0.0	191.74723641107124	543.7573414721637	0.0	229.02780179751971	643.6636194322459	0.0	232.00965964185852	756.9925867013142	0.0	272.2679664143785	777.8635394420726	0.0	275.25043108249804	776.3720047927485	0.0	221.57153525174823	777.8669509804199	0.0	209.64506455893175	403.5893565118256	0.0	254.3736404038463	339.46941381006275	0.0	251.39971186713328	387.1820000045212	0.0	152.98284139752272	418.4979726933709	0.0	127.62927462369049	499.02187520966805	0.0	151.48282638468592	567.6129557571888	0.0	237.974200946951	431.91726484731873	0.0	242.44779254390485	504.98751884680473	0.0	260.3358197687296	564.6365948620872	0.0
1	0.016666666666666666	171.1445465814941	543.0933082961799	0.0	142.53053122669144	541.5544839652958	0.0	117.91844720460965	654.4232650923128	0.0	87.37649220078855	766.4667257445669	0.0	114.70118536856538	793.9672862234714	0.0	95.47286257072375	797.2189882710468	0.0	75.829529729599	785.0961614607905	0.0	191.9753057240275	543.1410563569295	0.0	228.8657754388069	643.5809050697485	0.0	231.9550014734253	757.5803165474005	0.0	271.39470346536274	780.4101503484669	0.0	274.41254173416104	777.4498411361011	0.0	222.17925988896275	777.3034036463621	0.0	209.22142885908252	403.7752991330005	0.0	254.6030020958331	340.8354209956616	0.0	251.27014713701902	388.0840563189274	0.0	152.83170361083523	418.80306530075745	0.0	127.48570733774	499.22650714589037	0.0	150.69854327623352	567.5821078486858	0.0	237.76094201923686	431.81025633547955	0.0	242.43439349266606	505.16671426532525	0.0	261.3624402709256	564.6461091323937	0.0
2	0.03333333333333333	171.3567829570358	542.5723092310336	0.0	142.53833753255913	541.0107964220739	0.0	118.47488256985675	654.6542202840157	0.0	87.40195246283301	766.8400932575472	0.0	115.10727076857269	793.7219371597258	0.0	95.91767596793781	797.1666691490201	0.0	76.10732705695438	784.9020923124775	0.0	192.15211817231966	542.62795474688	0.0	228.7384015031158	643.5189688319459	0.0	231.93093952306964	757.9617239892096	0.0	270.74085740740026	782.3268668772566	0.0	273.8114601173172	778.2417619296905	0.0	222.59976551288233	776.8953108389205	0.0	208.91507212404014	403.8822289450776	0.0	254.8608203536766	341.9159659103309	0.0	251.19465392474916	388.833454108767	0.0	152.69786153616732	419.0502448277125	0.0	127.3721981860735	499.3526809756097	0.0	150.09841018728284	567.5521787961618	0.0	237.6148657345871	431.7138564298483	0.0	242.41887109601038	505.30527709470556	0.0	262.1469342223564	564.6581814344036	0.0
3	0.05	171.47685861828043	542.279934396319	0.0	142.55462418064224	540.6816207245988	0.0	118.80549765442454	654.7513381397574	0.0	87.4488353750141	767.015908949002	0.0	115.37946890212976	793.5461683654813	0.0	96.10304035858633	797.1125505056253	0.0	76.25766283041922	784.7738116225737	0.0	192.26044698042875	542.259360381189	0.0	228.6530217395143	643.4716767566307	0.0	231.97821510915645	758.085719947426	0.0	270.37153999614213	783.3826219195313	0.0	273.4999775009583	778.644861667484	0.0	222.78835572177783	776.6859185534385	0.0	208.77025831625653	403.9063683717962	0.0	255.12615244432658	342.62763407654677	0.0	251.1769079265781	389.4323216581775	0.0	152.59319941268905	419.204397544034	0.0	127.27266589352618	499.38260186838613	0.0	149.7424203659077	567.4994988231133	0.0	237.59317302668094	431.62988545370297	0.0	242.40367257153048	505.38035409970007	0.0	262.61866613090336	564.6592279572857	0.0
4	0.06666666666666667	171.51613554320141	542.1876249191932	0.0	142.56205105164074	540.4880618202922	0.0	118.97358754661974	654.7260938352396	0.0	87.51098279959136	767.0531121387958	0.0	115.52431033522335	793.4251211328544	0.0	96.13268119775873	797.0883663721393	0.0	76.3413122117781	784.7242216017671	0.0	192.3320807734509	541.9773025629944	0.0	228.5984322595641	643.4005931723892	0.0	232.10940814322038	758.028632876635	0.0	270.22614356541277	783.7787092689026	0.0	273.3739839533612	778.7606603033457	0.0	222.82850462858045	776.5761902116169	0.0	208.7337352121306	403.90819807445854	0.0	255.35805019200262	343.07700395472284	0.0	251.17912764634443	389.9657339196503	0.0	152.51923656240956	419.26177478449586	0.0	127.14995306692228	499.358275547495	0.0	149.58011176413663	567.3954808060479	0.0	237.7066329017267	431.5573448202572	0.0	242.40292755749618	505.3814121408905	0.0	262.8766820182445	564.6456869820178	0.0
5	0.08333333333333333	171.5004271340446	542.1860550724448	0.0	142.55188637432798	540.3437021531147	0.0	119.04888493013078	654.6088925630006	0.0	87.57015372166883	767.0166756809268	0.0	115.56581529844863	793.3563821974467	0.0	96.11885900158424	797.1015753839338	0.0	76.41038955167936	784.7372620371715	0.0	192.41508342254687	541.7068743128647	0.0	228.56687324982883	643.2783717691391	0.0	232.2783949231653	757.8651116450525	0.0	270.25000016484177	783.827486451182	0.0	273.350727710682	778.7390984038568	0.0	222.81064651231094	776.437989013606	0.0	208.73075817691986	403.9410855940132	0.0	255.55820893095682	343.37742169207536	0.0	251.18137501658086	390.43953237073964	0.0	152.47137647533168	419.2449306110211	0.0	126.99723292541228	499.3246972062891	0.0	149.5296790142413	567.2457248381281	0.0	237.90897816660532	431.49708503804504	0.0	242.4361430132766	505.30686761111315	0.0	263.02043379458655	564.6476338663283	0.0
6	0.1	171.4350073662298	542.1971769474575	0.0	142.5158489587597	540.2671172335087	0.0	119.05645378980051	654.4312352241432	0.0	87.61778920317349	766.9318062613191	0.0	115.5131716982912	793.3502418437289	0.0	96.06978237436377	797.1222380145307	0.0	76.48667107079231	784.7738107267355	0.0	192.53220099923854	541.4701975308781	0.0	228.56550061362094	643.1294167899941	0.0	232.4128301912913	757.6399174878643	0.0	270.43025372112567	783.689051942966	0.0	273.4410247033648	778.6354884803409	0.0	222.7610862373225	776.2382949870339	0.0	208.7435849009321	404.01162753439525	0.0	255.75851105676378	343.5526897779972	0.0	251.220175332709	390.7662243708634	0.0	152.44513026008852	419.19619814055994	0.0	126.8453664880103	499.30274163026445	0.0	149.5174739239732	567.0947758884089	0.0	238.14155100901428	431.4576401956787	0.0	242.51756145730587	505.17840161790474	0.0	263.037201716722	564.7109118254245	0.0
7	0.11666666666666667	171.32293073257713	542.2194097137947	0.0	142.447144011707	540.3216224033765	0.0	119.02930529455955	654.2468050427049	0.0	87.6677397321824	766.8179103828487	0.0	115.39461561417717	793.3965039930981	0.0	95.96532712827752	797.11069445177	0.0	76.58820123030186	784.7880184952953	0.0	192.67868835279378	541.345803371215	0.0	228.60908423571607	643.0076063701678	0.0	232.46553312228045	757.4212508468017	0.0	270.71398845852144	783.4489297541919	0.0	273.6362620919123	778.4534533775392	0.0	222.67251432588694	776.0298915867988	0.0	208.783007401293	404.0975381539815	0.0	255.9574274576227	343.6177505192135	0.0	251.33606107467594	390.88904386351476	0.0	152.42745263776516	419.16079279308855	0.0	126.73234360475932	499.30828227473927	0.0	149.4804691025472	566.9863898222427	0.0	238.36844816695412	431.4611509768187	0.0	242.6467051138963	505.04055197159073	0.0	262.90043882775433	564.8503446074004	0.0
8	0.13333333333333333	171.19797906558787	542.2670877218573	0.0	142.35919135481615	540.4888122814223	0.0	119.03037155708017	654.1271132264121	0.0	87.73542995255599	766.7148487848256	0.0	115.28073771332873	793.4597080903612	0.0	95.866882253417	797.0508171696274	0.0	76.72428220485757	784.7493694898975	0.0	192.83306982679696	541.350090695656	0.0	228.69741445499605	642.9448149157083	0.0	232.42988254749682	757.2861824586254	0.0	270.97607407625577	783.2591551481795	0.0	273.8337334142614	778.2483558600916	0.0	222.551639109252	775.8782922723692	0.0	208.83537781098352	404.17742839185036	0.0	256.1197093172773	343.63764028594323	0.0	251.49912808489742	390.85691313880994	0.0	152.39570365064452	419.1567380548558	0.0	126.68809569756316	499.346455624555	0.0	149.3724625232457	566.9280156310659	0.0	238.562990362945	431.5226235324681	0.0	242.7951239271556	504.9408589111097	0.0	262.68875527083884	565.0300221220527	0.0
9	0.15	171.11063249352853	542.3295858593984	0.0	142.29137479371056	540.6862552198617	0.0	119.08386383156581	654.1092595995672	0.0	87.81424645165146	766.6574480897826	0.0	115.22775986278769	793.5138327695611	0.0	95.86309668722836	796.9662800429455	0.0	76.86359347145459	784.6713151953047	0.0	192.96232203755932	541.4364304057802	0.0	228.804146159552	642.9390958250713	0.0	232.33430927793378	757.2500913645123	0.0	271.1291615562677	783.2164399705712	0.0	273.9476414771842	778.0949714517102	0.0	222.42425146538335	775.831289647131	0.0	208.89240642071562	404.2349640444834	0.0	256.22275275491114	343.64890093455	0.0	251.63318277234308	390.7510552622822	0.0	152.34608428820087	419.17181711964554	0.0	126.73997891979435	499.3977476870291	0.0	149.17889940964608	566.9055736187715	0.0	238.6961241680023	431.62464606446486	0.0	242.9178372167605	504.91016824810623	0.0	262.50106694042626	565.1955907255989	0.0
10	0.16666666666666666	171.09155750726072	542.3989180960766	0.0	142.2828884390235	540.8561285711236	0.0	119.14066817937612	654.1670999131029	0.0	87.87574075268367	766.6559011382485	0.0	115.24028567443632	793.558754925944	0.0	95.96365601749369	796.9135465632022	0.0	76.95171910944588	784.6128988597438	0.0	193.03994870513287	541.5638764045689	0.0	228.90178263645493	642.9787640550422	0.0	232.23014191121928	757.2686315759564	0.0	271.19589935709996	783.2351418936574	0.0	273.997274917151	778.0075850311558	0.0	222.3218785308828	775.9078353879057	0.0	208.99786308079794	404.2575547047111	0.0	256.26727968491787	343.6110092357616	0.0	251.71556681451918	390.5798180211504	0.0	152.32384741993891	419.18703032401095	0.0	126.89979233684427	499.44044985712725	0.0	148.91076567214776	566.9090787183085	0.0	238.75936815189783	431.7182690110513	0.0	242.9928711826301	504.9512469087444	0.0	262.32949897505	565.3335004373897	0.0
